<svg xmlns="http://www.w3.org/2000/svg" width="255" height="74" viewBox="0 0 255 74">
    <g fill="none" fill-rule="evenodd">
        <path fill="#12A5ED" d="M27.456 61.191a23.94 23.94 0 0 1-3.596.27C10.683 61.462 0 50.73 0 37.492c0-13.238 10.683-23.97 23.86-23.97 1.064 0 2.112.07 3.139.206C30.822 5.613 39.047 0 48.577 0c13.178 0 23.86 10.732 23.86 23.97 0 4.805-1.406 9.279-3.83 13.03a23.937 23.937 0 0 1 3.83 13.03c0 13.238-10.682 23.97-23.86 23.97-9.166 0-17.125-5.192-21.121-12.809z"/>
        <g fill="#FFF" transform="rotate(-1 1481.535 -410.562)">
            <ellipse cx="51.147" cy="11.801" rx="2.202" ry="2.213"/>
            <ellipse cx="2.203" cy="11.788" rx="2.202" ry="2.213"/>
            <ellipse cx="17.131" cy="21.143" rx="2.202" ry="2.213"/>
            <ellipse cx="17.131" cy="2.45" rx="2.202" ry="2.213"/>
            <path d="M17.664 11.309h33.483v1.23H17.664z"/>
            <path d="M16.641 3.688h1.224v16.226h-1.224z"/>
            <path d="M16.98 3.158l.611 1.06L3.54 12.33l-.612-1.06z"/>
            <path d="M2.927 12.33l.612-1.06 14.052 8.114-.612 1.06z"/>
        </g>
        <g fill="#FFF" transform="rotate(-121 43.895 22.195)">
            <ellipse cx="51.392" cy="11.801" rx="2.202" ry="2.213"/>
            <ellipse cx="2.426" cy="11.877" rx="2.202" ry="2.213"/>
            <ellipse cx="17.556" cy="20.989" rx="2.202" ry="2.213"/>
            <ellipse cx="17.683" cy="2.422" rx="2.202" ry="2.213"/>
            <path d="M17.909 11.309h33.483v1.23H17.909z"/>
            <path d="M16.886 3.688h1.224v16.226h-1.224z"/>
            <path d="M17.224 3.158l.612 1.06L3.784 12.33l-.612-1.06z"/>
            <path d="M3.172 12.33l.612-1.06 14.052 8.113-.612 1.06z"/>
        </g>
        <g fill="#FFF" transform="rotate(119 29.06 26.543)">
            <ellipse cx="51.147" cy="11.801" rx="2.202" ry="2.213"/>
            <ellipse cx="2.325" cy="11.786" rx="2.202" ry="2.213"/>
            <ellipse cx="17.663" cy="20.966" rx="2.202" ry="2.213"/>
            <ellipse cx="17.31" cy="2.302" rx="2.202" ry="2.213"/>
            <path d="M17.664 11.309h33.483v1.23H17.664z"/>
            <path d="M16.886 3.688h1.224v16.226h-1.224z"/>
            <path d="M17.224 3.158l.612 1.06L3.784 12.33l-.612-1.06z"/>
            <path d="M3.172 12.33l.612-1.06 14.052 8.113-.612 1.06z"/>
        </g>
        <g transform="translate(31.08 27.289)">
            <ellipse cx="9.177" cy="9.219" fill="#FFF" rx="9.177" ry="9.219"/>
            <path fill="#12A5ED" d="M6.395 13.153a.158.158 0 0 1-.087-.025.148.148 0 0 1-.068-.13V5.932c0-.054.025-.104.068-.13.05-.032.1-.032.155-.007l7.033 3.533a.147.147 0 0 1 .086.137.147.147 0 0 1-.086.137l-7.033 3.533a.16.16 0 0 1-.068.018z"/>
        </g>
        <path fill="#0A3758" d="M97.174 31.801a.946.946 0 0 1-.946-.945v-.741c0-2.7-.98-3.893-3.608-3.893-2.627 0-3.608 1.192-3.608 3.893v1.719c0 1.823.631 2.314 2.487 3.296l3.748 2.07c1.717.912 2.943 2.28 2.943 4.138v3.157c0 3.507-1.787 5.12-5.5 5.12h-.07c-3.713 0-5.5-1.578-5.5-5.12v-1.583a.946.946 0 1 1 1.892 0v1.022c0 2.665.981 3.963 3.643 3.963 2.663 0 3.643-1.298 3.643-3.963V41.97c0-1.824-.735-2.456-2.592-3.508l-3.678-1.999c-2.031-1.157-2.907-2.104-2.907-4.068v-2.841c0-3.367 2.102-5.05 5.464-5.05h.07c3.363 0 5.465 1.683 5.465 5.05v1.302a.946.946 0 0 1-.946.945zm16.498-6.14a.877.877 0 0 1-.876.877h-3.747v21.851a.946.946 0 0 1-1.892 0V26.538h-3.747a.877.877 0 0 1 0-1.754h9.386c.484 0 .876.392.876.877zm16.253 23.674c-.611 0-1.16-.378-1.376-.95l-3.668-9.642h-4.273v9.646a.946.946 0 1 1-1.892 0V25.764a.98.98 0 0 1 .98-.98h4.8c3.713 0 5.605 1.754 5.605 5.19v3.578c0 2.666-1.121 4.314-3.363 4.91l3.837 9.925a.696.696 0 0 1-.65.948zm-5.569-12.31c2.767 0 3.853-1.193 3.853-4.07v-2.349c0-2.911-1.086-4.068-3.853-4.068h-3.748v10.486h3.748zm21.12 12.31h-7.88a.98.98 0 0 1-.98-.98V25.764a.98.98 0 0 1 .98-.98h7.776a.877.877 0 1 1 0 1.754h-6.865v9.47h5.779a.877.877 0 0 1 0 1.754l-5.779-.001v9.82h6.97a.877.877 0 1 1 0 1.754zm16.223-.959l-1.159-5.354h-6.585l-1.166 5.389c-.117.539-.594.924-1.146.924a.758.758 0 0 1-.74-.923l5.023-22.568c.138-.62.687-1.06 1.321-1.06.635 0 1.186.44 1.325 1.06l5.08 22.534a.784.784 0 0 1-.765.957c-.572 0-1.067-.4-1.188-.959zm-7.359-7.073h5.815l-2.908-13.538-2.907 13.538zM183.45 29.59l-5.51 13.933a.8.8 0 0 1-1.486 0l-5.545-13.933v18.853a.893.893 0 0 1-1.786 0v-22.73c0-.513.416-.928.928-.928.56 0 1.062.343 1.265.865l5.829 14.976 5.875-14.928a1.44 1.44 0 0 1 1.34-.913c.542 0 .981.439.981.98V48.39a.946.946 0 1 1-1.892 0v-18.8zm19.826 19.746c-.612 0-1.16-.378-1.377-.95l-3.667-9.642h-4.274v9.646a.946.946 0 0 1-1.892 0V25.764a.98.98 0 0 1 .98-.98h4.8c3.713 0 5.605 1.754 5.605 5.19v3.578c0 2.666-1.121 4.314-3.363 4.91l3.837 9.925a.696.696 0 0 1-.65.948zm-5.57-12.31c2.767 0 3.853-1.193 3.853-4.07v-2.349c0-2.911-1.086-4.068-3.853-4.068h-3.748v10.486h3.748zm11.91-7.33c0-3.473 1.891-5.192 5.604-5.192h.28c3.713 0 5.605 1.754 5.605 5.191v14.73c0 3.438-1.892 5.191-5.605 5.191h-.28c-3.713 0-5.604-1.753-5.604-5.19v-14.73zm1.891 14.098c0 2.911 1.086 4.069 3.853 4.069 2.768 0 3.853-1.158 3.853-4.069V30.325c0-2.91-1.085-4.068-3.853-4.068-2.767 0-3.853 1.157-3.853 4.068v13.468zm16.043-14.099c0-3.472 1.892-5.19 5.605-5.19h.28c3.713 0 5.604 1.753 5.604 5.19v14.73c0 3.438-1.891 5.191-5.604 5.191h-.28c-3.713 0-5.605-1.753-5.605-5.19v-14.73zm1.892 14.1c0 2.91 1.086 4.068 3.853 4.068 2.767 0 3.853-1.158 3.853-4.069V30.325c0-2.91-1.086-4.068-3.853-4.068-2.767 0-3.853 1.157-3.853 4.068v13.468zm25.5-18.133a.877.877 0 0 1-.877.877h-3.746v21.851a.946.946 0 0 1-1.892 0V26.538h-3.747a.877.877 0 0 1 0-1.754h9.385c.485 0 .877.392.877.877z"/>
    </g>
</svg>
